HIERARCHY
ROOT SpineBase
{
  OFFSET 0.000000 0.000000 0.000000
  CHANNELS 6 Xposition Yposition Zposition Zrotation Xrotation Yrotation
  JOINT SpineMid
  {
    OFFSET 0.000000 31.070113 0.000000
    CHANNELS 3 Zrotation Xrotation Yrotation
    JOINT SpineShoulder
    {
      OFFSET 0.277255 23.102981 -0.744854
      CHANNELS 3 Zrotation Xrotation Yrotation
      JOINT Neck
      {
        OFFSET 0.205163 7.653629 -0.567224
        CHANNELS 3 Zrotation Xrotation Yrotation
        JOINT Head
        {
          OFFSET 3.756284 12.053938 4.024276
          CHANNELS 3 Zrotation Xrotation Yrotation
          End Site
          {
            OFFSET 0 0 0
          }
        }
      }
      JOINT ShoulderLeft
      {
        OFFSET -6.276930 -2.415254 -14.935953
        CHANNELS 3 Zrotation Xrotation Yrotation
        JOINT ElbowLeft
        {
          OFFSET -1.346238 -23.128346 -7.278761
          CHANNELS 3 Zrotation Xrotation Yrotation
          JOINT WristLeft
          {
            OFFSET 6.103150 -20.349631 0.371906
            CHANNELS 3 Zrotation Xrotation Yrotation
            JOINT HandLeft
            {
              OFFSET 2.096324 -7.919898 2.990619
              CHANNELS 3 Zrotation Xrotation Yrotation
              JOINT HandTipLeft
              {
                OFFSET 3.110887 -7.668906 -0.201291
                CHANNELS 3 Zrotation Xrotation Yrotation
                End Site
                {
                  OFFSET 0 0 0
                }
              }
              JOINT ThumbLeft
              {
                OFFSET -3.967118 1.124651 -1.648053
                CHANNELS 3 Zrotation Xrotation Yrotation
                End Site
                {
                  OFFSET 0 0 0
                }
              }
            }
          }
        }
      }
      JOINT ShoulderRight
      {
        OFFSET 8.108090 -4.377874 15.609408
        CHANNELS 3 Zrotation Xrotation Yrotation
        JOINT ElbowRight
        {
          OFFSET 0.348129 -24.790984 5.022583
          CHANNELS 3 Zrotation Xrotation Yrotation
          JOINT WristRight
          {
            OFFSET 3.286838 -20.966940 -11.820400
            CHANNELS 3 Zrotation Xrotation Yrotation
            JOINT HandRight
            {
              OFFSET 1.550644 -6.632355 0.187379
              CHANNELS 3 Zrotation Xrotation Yrotation
              JOINT HandTipRight
              {
                OFFSET -0.374415 -6.521836 -0.347261
                CHANNELS 3 Zrotation Xrotation Yrotation
                End Site
                {
                  OFFSET 0 0 0
                }
              }
              JOINT ThumbRight
              {
                OFFSET -1.486878 1.866739 -9.059717
                CHANNELS 3 Zrotation Xrotation Yrotation
                End Site
                {
                  OFFSET 0 0 0
                }
              }
            }
          }
        }
      }
    }
  }
  JOINT HipLeft
  {
    OFFSET -1.912161 2.360285 -8.950762
    CHANNELS 3 Zrotation Xrotation Yrotation
    JOINT KneeLeft
    {
      OFFSET -8.982232 -34.903184 -3.941382
      CHANNELS 3 Zrotation Xrotation Yrotation
      JOINT AnkleLeft
      {
        OFFSET -7.056405 -35.284683 6.117512
        CHANNELS 3 Zrotation Xrotation Yrotation
        JOINT FootLeft
        {
          OFFSET 10.204508 -3.299273 -7.844032
          CHANNELS 3 Zrotation Xrotation Yrotation
          End Site
          {
            OFFSET 0 0 0
          }
        }
      }
    }
  }
  JOINT HipRight
  {
    OFFSET 4.220510 -0.080163 2.016914
    CHANNELS 3 Zrotation Xrotation Yrotation
    JOINT KneeRight
    {
      OFFSET -2.837208 -36.760196 4.235624
      CHANNELS 3 Zrotation Xrotation Yrotation
      JOINT AnkleRight
      {
        OFFSET -7.265768 -32.417775 3.011450
        CHANNELS 3 Zrotation Xrotation Yrotation
        JOINT FootRight
        {
          OFFSET 10.052366 -3.332357 -7.917657
          CHANNELS 3 Zrotation Xrotation Yrotation
          End Site
          {
            OFFSET 0 0 0
          }
        }
      }
    }
  }
}
MOTION
Frames: 12
Frame Time: 0.033333
-101.469533 75.626709 309.941012 -0.000000 0.000000 -60.787883 -0.000000 0.000000 60.787883 -0.000000 0.000000 0.000000 -0.000000 0.000000 0.000000 0.000000 0.000000 0.000000 -0.000000 0.000000 0.000000 -0.000000 0.000000 0.000000 -0.000000 0.000000 0.000000 -0.000000 0.000000 0.000000 0.000000 0.000000 0.000000 0.000000 0.000000 0.000000 -0.000000 0.000000 0.000000 -0.000000 0.000000 0.000000 -0.000000 0.000000 0.000000 -0.000000 0.000000 0.000000 0.000000 0.000000 0.000000 0.000000 0.000000 0.000000 -0.000000 0.000000 60.787883 -0.000000 0.000000 0.000000 -0.000000 0.000000 0.000000 0.000000 0.000000 0.000000 -0.000000 0.000000 60.787883 -0.000000 0.000000 0.000000 -0.000000 0.000000 0.000000 0.000000 0.000000 0.000000
-101.239901 75.585143 309.765953 0.045946 0.223464 -60.967034 0.173086 -0.148622 60.967169 -0.000000 0.000000 0.000000 -0.000000 0.000000 0.000000 0.000000 0.000000 0.000000 -0.000000 0.000000 0.000000 0.739948 0.651046 0.204205 -0.742311 -0.648351 -0.212609 -0.000000 0.000000 0.000000 0.000000 0.000000 0.000000 0.000000 0.000000 0.000000 -0.000000 0.000000 0.000000 -0.000000 0.000000 0.000000 1.311776 -2.829009 -0.590105 1.454620 2.720461 0.378514 0.000000 0.000000 0.000000 0.000000 0.000000 0.000000 0.173086 -0.148622 60.967169 -0.000000 0.000000 0.000000 -0.000000 0.000000 0.000000 0.000000 0.000000 0.000000 0.173086 -0.148622 60.967169 -0.000000 0.000000 0.000000 -0.000000 0.000000 0.000000 0.000000 0.000000 0.000000
-101.041811 75.548131 309.606638 0.105844 0.389784 -61.151368 0.290343 -0.280778 61.151719 -0.000000 0.000000 0.000000 -0.000000 0.000000 0.000000 0.000000 0.000000 0.000000 -0.000000 0.000000 0.000000 1.346200 1.184599 0.364760 -1.907663 -1.756635 -0.768760 -0.008035 1.168105 0.619241 0.000000 0.000000 0.000000 0.000000 0.000000 0.000000 -0.000000 0.000000 0.000000 -0.000000 0.000000 0.000000 2.496732 -5.257823 -1.038271 2.373813 5.489976 0.531198 0.000000 0.000000 0.000000 0.000000 0.000000 0.000000 1.040006 -0.536456 61.342443 -0.135199 0.780421 -0.184456 -0.000000 0.000000 0.000000 0.000000 0.000000 0.000000 0.290343 -0.280778 61.151719 -0.000000 0.000000 0.000000 -0.000000 0.000000 0.000000 0.000000 0.000000 0.000000
-100.875266 75.515673 309.463069 0.179664 0.499257 -61.341569 0.351934 -0.397091 61.342006 -0.000000 0.000000 0.000000 -0.000000 0.000000 0.000000 0.000000 0.000000 0.000000 -0.000000 0.000000 0.000000 1.808089 1.588892 0.482372 -2.573229 -2.301682 -1.033174 0.109146 1.430602 0.780825 0.000000 0.000000 0.000000 0.000000 0.000000 0.000000 -0.000000 0.000000 0.000000 -0.000000 0.000000 0.000000 3.554262 -7.254220 -1.360115 2.636443 8.293061 0.563898 0.000000 0.000000 0.000000 0.000000 0.000000 0.000000 1.382378 -0.725454 61.602446 -0.941837 1.451192 -0.437832 0.743358 -0.382853 0.208080 0.000000 0.000000 0.000000 0.351934 -0.397091 61.342006 -0.000000 0.000000 0.000000 -0.000000 0.000000 0.000000 0.000000 0.000000 0.000000
-100.740263 75.487771 309.335244 0.267388 0.552132 -61.538309 0.357973 -0.498199 61.538577 -0.000000 0.000000 0.000000 0.673049 0.480849 -0.377533 0.000000 0.000000 0.000000 -0.000000 0.000000 0.000000 2.116832 1.854379 0.557703 -3.030914 -2.617796 -1.205476 0.319198 1.474788 0.838930 0.000000 0.000000 0.000000 0.000000 0.000000 0.000000 -0.000000 0.000000 0.000000 -0.000000 0.000000 0.000000 4.485018 -8.803187 -1.572149 2.150849 11.110965 0.589796 0.000000 0.000000 0.000000 0.000000 0.000000 0.000000 1.606214 -0.863621 61.850313 -1.216572 1.712671 -0.520940 0.953451 -0.430914 0.255329 0.000000 0.000000 0.000000 0.357973 -0.498199 61.538577 -0.000000 0.000000 0.000000 -0.000000 0.000000 0.000000 0.000000 0.000000 0.000000
-100.636803 75.464424 309.223163 0.369005 0.548610 -61.742254 0.308530 -0.584761 61.742062 -0.000000 0.000000 0.000000 0.529823 0.788635 -0.425926 0.000000 0.000000 0.000000 0.824243 -0.080471 -0.254303 1.432465 2.060831 0.843502 -3.272373 -2.700838 -1.279259 0.967530 0.773256 0.563676 0.000000 0.000000 0.000000 0.000000 0.000000 0.000000 -0.000000 0.000000 0.000000 -0.000000 0.000000 0.000000 5.290321 -9.903009 -1.690357 0.863606 13.909250 0.714806 0.000000 0.000000 0.000000 0.000000 0.000000 0.000000 1.711288 -0.952387 62.085946 -1.472296 1.862643 -0.575061 1.144351 -0.439341 0.291046 0.000000 0.000000 0.000000 0.308530 -0.584761 61.742062 -0.000000 0.000000 0.000000 -0.000000 0.000000 0.000000 0.000000 0.000000 0.000000
-100.587783 75.443070 309.178203 0.483917 0.467473 -62.018767 0.185777 -0.646676 62.017841 -0.000000 0.000000 0.000000 0.159252 1.159859 -0.415006 0.000000 0.000000 0.000000 1.107944 -0.118143 -0.340976 0.803020 2.084666 0.927332 -2.741437 -2.643935 -1.171511 0.852972 1.684793 0.868758 0.000000 0.000000 0.000000 0.000000 0.000000 0.000000 -0.000000 0.000000 0.000000 -0.000000 0.000000 0.000000 5.659773 -9.457371 -1.565731 -0.388224 13.701984 0.856698 0.000000 0.000000 0.000000 0.000000 0.000000 0.000000 1.652514 -0.974991 62.367402 -1.674353 1.870343 -0.591558 1.288524 -0.405097 0.309483 0.000000 0.000000 0.000000 0.185777 -0.646676 62.017841 -0.612714 -0.869919 0.133154 0.614805 0.868443 -0.142465 0.000000 0.000000 0.000000
-100.545105 75.428307 309.088602 0.618294 0.342096 -62.264769 0.015034 -0.706460 62.263016 -0.000000 0.000000 0.000000 -0.355399 1.755502 -0.420441 0.000000 0.000000 0.000000 1.364715 -0.072221 -0.424825 0.065268 1.664628 0.906986 -1.456218 -1.579178 -0.522189 -0.000000 0.000000 0.000000 0.000000 0.000000 0.000000 0.000000 0.000000 0.000000 -0.000000 0.000000 0.000000 -0.000000 0.000000 0.000000 6.281234 -8.615712 -1.346687 -3.171344 14.155375 1.130166 0.000000 0.000000 0.000000 0.000000 0.000000 0.000000 1.492234 -0.987311 62.606205 -1.837583 1.783833 -0.587105 1.572182 -0.480214 -0.539159 0.000000 0.000000 0.000000 0.015034 -0.706460 62.263016 -0.783024 -1.147314 0.176141 0.955252 0.993722 -1.049448 0.000000 0.000000 0.000000
-100.519832 75.432035 309.006087 0.763357 0.174879 -62.512921 0.315831 -0.072679 62.543071 0.067479 -0.172716 0.048352 -1.716709 2.574329 -0.484452 0.000000 0.000000 0.000000 0.690645 0.247601 -0.582498 -0.223034 1.121185 0.829991 -2.137798 -0.525734 -0.509203 2.962408 -1.243767 -0.170330 0.000000 0.000000 0.000000 0.000000 0.000000 0.000000 -0.911809 0.312734 -0.073471 -0.000000 0.000000 0.000000 6.869534 -7.643089 -1.118042 -8.028040 16.404580 1.753396 0.000000 0.000000 0.000000 0.000000 0.000000 0.000000 1.211132 -0.957731 62.824130 -1.985476 1.567778 -0.554754 1.714954 -0.433590 -0.845541 0.000000 0.000000 0.000000 -0.197210 -0.757895 62.510452 -0.812041 -1.420764 0.232309 1.010458 1.188045 -1.404930 0.000000 0.000000 0.000000
-100.526363 75.411408 308.922003 0.911269 -0.015135 -62.599279 0.365599 0.010059 62.641004 0.112505 -0.154208 0.064298 -2.301718 3.119720 -0.507352 0.000000 0.000000 0.000000 0.709698 0.418643 -0.709954 -0.669554 0.785094 0.828470 -2.045662 -0.117129 -0.395837 3.058353 -2.226498 -0.515243 0.000000 0.000000 0.000000 0.000000 0.000000 0.000000 -1.200203 0.491351 -0.096981 -0.000000 0.000000 0.000000 7.508777 -9.304639 -1.332290 -11.380966 20.308789 2.968182 0.000000 0.000000 0.000000 0.000000 0.000000 0.000000 0.876531 -0.834967 62.853986 -2.255549 1.280004 -0.507256 1.906165 -0.329903 -0.965247 0.000000 0.000000 0.000000 -0.519411 0.294122 62.658733 -1.828560 -2.294682 0.210807 1.113096 1.458368 -1.583844 0.000000 0.000000 0.000000
-100.562166 75.398512 308.796604 1.085036 -0.177163 -62.755663 0.397619 0.070816 62.808619 0.136056 -0.132824 0.077818 -2.769580 3.447004 -0.504931 0.000000 0.000000 0.000000 0.717377 0.472418 -0.817380 -0.976595 0.585507 0.827511 -2.374274 0.118783 -0.455375 3.541986 -2.980580 -0.674460 0.000000 0.000000 0.000000 0.000000 0.000000 0.000000 -1.464832 0.634155 -0.117468 -0.000000 0.000000 0.000000 7.357309 -11.919690 -1.787356 -12.265684 25.051827 4.128905 0.000000 0.000000 0.000000 0.000000 0.000000 0.000000 0.644929 -0.769821 62.976877 -2.501304 1.054476 -0.466404 2.053585 -0.169884 -1.010664 0.000000 0.000000 0.000000 -0.778800 0.634115 62.838896 -2.331970 -2.858622 0.234576 1.287011 1.808640 -1.685752 0.000000 0.000000 0.000000
-100.610368 75.362622 308.678342 1.275678 -0.337427 -62.870059 0.398839 0.111547 62.933880 0.140233 -0.116534 0.089139 -3.095369 3.656901 -0.507940 0.000000 0.000000 0.000000 0.728617 0.449044 -0.907273 -1.281830 0.621322 0.863694 -2.898319 -0.377234 -0.810103 4.064969 -3.212075 -0.655545 0.000000 0.000000 0.000000 0.000000 0.000000 0.000000 -1.695287 0.762204 -0.134818 -0.000000 0.000000 0.000000 7.465732 -15.517773 -2.374797 -13.822720 30.889001 5.900649 0.000000 0.000000 0.000000 0.000000 0.000000 0.000000 0.345236 -0.796078 63.063287 -2.570457 0.759332 -0.411438 2.114303 0.074225 -0.957757 0.000000 0.000000 0.000000 -1.034483 1.119912 62.989774 -2.862106 -3.429708 0.243504 1.340296 2.146402 -1.661711 0.000000 0.000000 0.000000
